<?xml version="1.0" encoding="UTF-8" standalone="no"?>
<!-- Created with Inkscape (http://www.inkscape.org/) -->

<svg
   version="1.1"
   id="svg362"
   width="1996"
   height="1377.3202"
   viewBox="0 0 1996 1377.3202"
   sodipodi:docname="Boat7b.svg"
   inkscape:version="1.2.2 (732a01da63, 2022-12-09, custom)"
   xmlns:inkscape="http://www.inkscape.org/namespaces/inkscape"
   xmlns:sodipodi="http://sodipodi.sourceforge.net/DTD/sodipodi-0.dtd"
   xmlns="http://www.w3.org/2000/svg"
   xmlns:svg="http://www.w3.org/2000/svg">
  <defs
     id="defs366" />
  <sodipodi:namedview
     id="namedview364"
     pagecolor="#ffffff"
     bordercolor="#000000"
     borderopacity="0.25"
     inkscape:showpageshadow="2"
     inkscape:pageopacity="0.0"
     inkscape:pagecheckerboard="0"
     inkscape:deskcolor="#d1d1d1"
     showgrid="false"
     inkscape:zoom="0.51944444"
     inkscape:cx="1016.4706"
     inkscape:cy="677.64706"
     inkscape:window-width="1920"
     inkscape:window-height="1031"
     inkscape:window-x="0"
     inkscape:window-y="25"
     inkscape:window-maximized="1"
     inkscape:current-layer="layer1" />
  <g
     inkscape:groupmode="layer"
     id="layer1"
     inkscape:label="Layer 1"
     style="display:inline">
    <path
       id="path372"
       style="display:inline;fill:#000000;stroke-width:1.33333"
       d="m 877.63267,63.477014 c -3.39714,0.125351 -6.94066,0.932126 -10.41016,2.507813 -8.03882,3.650853 -9.95706,9.471935 -11.01953,33.460937 l -0.85547,19.333986 -24.49805,42.66601 c -13.47345,23.46664 -24.6369,42.83052 -24.80664,43.0293 -0.16976,0.19878 -10.24758,2.07615 -22.39648,4.17383 -24.92815,4.30419 -32.15173,7.27319 -36.03321,14.80469 -4.72787,9.17384 0.45319,27.15018 8.99414,31.20312 2.46174,1.16819 7.46402,2.12305 11.11524,2.12305 5.56776,0 73.1761,-10.53818 82.625,-12.87891 l 3,-0.74414 v 27.47656 27.47657 L 645.86509,701.11178 C 531.75057,922.76218 438.1839,1104.3294 437.93931,1104.5942 c -0.62419,0.6757 -32.78823,-2.6416 -35.41211,-3.6523 -1.62485,-0.6258 6.14313,-9.5035 31.64453,-36.1622 35.91424,-37.544 41.63257,-45.1833 39.85742,-53.2656 -0.49233,-2.2415 -2.67205,-5.8518 -4.8418,-8.0215 -8.26335,-8.26335 -19.57783,-6.27167 -32.19531,5.668 -4.04066,3.8236 -23.74039,23.9589 -43.7793,44.7441 l -36.43554,37.7911 -5.26172,-0.8418 c -15.55915,-2.488 -72.66738,-23.9609 -93.38477,-35.1133 -9.14332,-4.9219 -9.2769,-5.0738 -16.66797,-19.0723 -9.65597,-18.2883 -13.33207,-22.9468 -21.08007,-26.7109 -4.90509,-2.383 -8.66835,-3.1011 -16.36914,-3.1231 -16.83613,-0.048 -24,5.5396 -24,18.7168 0,5.5261 4.55031,15.2534 39.93164,85.3789 l 39.92968,79.1426 -20.28906,18.6153 c -28.0566,25.7402 -33.69526,30.039 -59.38867,45.2773 -33.59459,19.9242 -42.28996,27.5128 -78.86328,68.8164 -29.052258,32.8098 -37.320315,43.3172 -37.320315,47.4297 0,1.3004 1.551661,4.2097 3.449219,6.4648 3.790266,4.5045 10.982472,7.0112 57.812496,20.1563 26.56352,7.4561 32.17157,7.8991 41.82618,3.3105 8.1195,-3.8591 16.53158,-13.3445 29.58593,-33.3633 23.37314,-35.8424 30.33478,-47.7747 42.66602,-73.1308 12.04103,-24.7594 12.85415,-26.0212 26.73437,-41.5352 7.87329,-8.8 14.76379,-16.1798 15.3125,-16.3984 1.08167,-0.4309 83.15138,160.9717 82.28907,161.834 -0.28795,0.288 -14.88353,5.3006 -32.4336,11.1406 -30.91701,10.288 -59.95468,17.4238 -70.91015,17.4238 -2.93286,0 -7.20639,0.3738 -9.49805,0.8321 -3.98291,0.7965 -4.16797,1.1207 -4.16797,7.3339 0,7.5771 -0.71444,7.3865 19.33399,5.1211 18.48284,-2.0886 36.49662,-6.8595 80,-21.1894 43.65135,-14.3785 59.76445,-18.3983 79.63476,-19.8711 30.16076,-2.2358 49.83738,1.4521 105.69922,19.8105 59.45432,19.5392 70.84834,22.0122 100.66601,21.8497 27.75356,-0.1513 44.09766,-3.675 95.3086,-20.5489 56.87203,-18.7393 69.31551,-21.5293 96.03515,-21.5293 26.68664,0 43.00529,3.6028 94.65625,20.8946 53.12962,17.7867 68.69522,21.149 97.99998,21.166 29.9847,0.017 46.5823,-3.634 102.3262,-22.5078 46.4931,-15.7417 64.097,-19.5528 90.3301,-19.5528 26.7196,0 39.163,2.79 96.0351,21.5293 57.5942,18.9772 84.3654,23.6615 114.9102,20.1074 19.9692,-2.3235 36.6451,-6.7051 79.125,-20.7871 55.9948,-18.5621 77.5838,-22.6595 107.6387,-20.4316 19.9214,1.4766 36.0434,5.4972 79.6347,19.8613 50.2734,16.5661 75.5604,22.5781 94.9649,22.5781 4.3443,0 4.3691,-0.035 4.3691,-6.5703 v -6.5703 l -7.668,-0.7558 c -16.5366,-1.6272 -39.3935,-6.2844 -56.4531,-11.5039 -9.8334,-3.0085 -18.377,-5.9513 -18.9844,-6.5391 -1.0022,-0.97 154.9034,-218.9146 328.9278,-459.81641 14.4708,-20.03194 26.8793,-37.9195 27.5761,-39.75195 0.6966,-1.83245 1.2676,-6.06381 1.2676,-9.40235 0,-5.27329 -0.6787,-6.74909 -5.1758,-11.24609 l -5.1777,-5.17774 -25.8223,0.0293 c -29.7454,0.0337 -32.8532,0.84159 -41.8242,10.85742 -2.9333,3.27503 -15.8327,20.54595 -28.666,38.38086 l -23.334,32.42774 -10,4.60547 c -40.4424,18.62982 -98.9276,42.25235 -146.666,59.23825 -28.9243,10.2915 -85.2755,28.2987 -86.0703,27.5039 -0.2128,-0.2127 0.7666,-5.1853 2.1758,-11.0488 9.3159,-38.7634 18.9984,-93.15461 23.1426,-129.99414 10.8293,-96.27073 0.4752,-199.18604 -30.6993,-305.09961 -27.0588,-91.93071 -73.5808,-180.40524 -140.7988,-267.77539 -54.836,-71.27594 -117.6387,-133.81112 -174.0351,-173.29296 -10.0447,-7.03199 -13.127,-9.81758 -11.4063,-10.3086 1.2968,-0.37006 17.358,-3.18022 35.6914,-6.24414 35.3597,-5.90939 46.1282,-9.08147 50.3965,-14.8457 6.1794,-8.34558 2.994,-26.99121 -5.5938,-32.73633 -5.7199,-3.82657 -10.4111,-3.85627 -34.1367,-0.22266 l -18.666,2.85938 -142.668,-6.83789 c -78.4666,-3.760693 -154.0667,-7.431016 -168,-8.156252 -13.9332,-0.725235 -58.0333,-2.859872 -97.99996,-4.742188 -39.96663,-1.882315 -73.33164,-3.634131 -74.14453,-3.894531 -0.8129,-0.260402 -1.86202,-2.879023 -2.33203,-5.818359 -1.51578,-9.479127 -10.37891,-15.229568 -20.57031,-14.853516 z m 22.95507,35.023438 c 0.23917,-0.325705 410.81036,19.396938 414.75976,19.923828 1.4666,0.19567 -91.2335,16.11474 -206,35.37695 -114.76659,19.2622 -209.12112,35.012 -209.67577,35 -0.79208,-0.0175 0.11265,-89.206778 0.91601,-90.300778 z m -45.02539,47.699218 c 0.44274,-0.51484 -0.98564,49.53974 -1.43164,50.16797 -0.3798,0.53499 -30.11719,5.31379 -30.11719,4.83984 10e-6,-0.51581 30.6606,-53.97498 31.54883,-55.00781 z m 43.23828,101.91406 7.40039,8 c 12.0922,13.06987 36.73248,43.56882 57.62696,71.33203 59.85652,79.53348 98.39552,149.35452 122.79692,222.47266 11.7392,35.17651 21.3487,79.27468 23.5078,107.875 0.5115,6.77543 0.6948,12.30852 0.4062,12.29492 -0.2885,-0.0136 -48.075,-80.2643 -106.1914,-178.33398 l -105.66601,-178.3086 0.0586,-32.66601 z m -47.05664,86.61524 c 0.21893,1.58902 -68.4805,175.79799 -152.66601,387.1289 l -153.06446,384.23633 -46.44531,0.01 c -28.35057,0.01 -46.2713,-0.4786 -46,-1.2422 0.24444,-0.6879 89.84477,-174.89804 199.11133,-387.13479 C 776.29478,477.61975 851.49631,332.93128 851.74399,334.72897 Z m 47.62891,11.20117 c 2.16867,-0.66486 15.40207,21.53883 105.9082,174.18359 58.2642,98.26657 106.1788,180.28099 106.4746,182.25391 1.2216,8.14592 -2.991,42.6792 -7.9785,65.41211 -1.5687,7.14999 -3.2646,13 -3.7676,13 -0.503,0 -46.0456,-96.21467 -101.20701,-213.81055 -91.64218,-195.3672 -100.25807,-214.31734 -99.875,-219.66797 0.0512,-0.71469 0.1355,-1.27611 0.44531,-1.37109 z m -47.67578,30.84961 c 2.1446,-2.07948 -9.46003,41.23698 -97.52539,364.01562 -53.11849,194.69075 -97.25896,356.53373 -98.08789,359.65043 l -1.50586,5.6679 h -46.61524 c -25.63837,0 -46.61523,-0.3512 -46.61523,-0.7793 0,-1.2011 289.56949,-727.79822 290.34961,-728.55465 z m 47.58594,15.68555 c 1.6315,-1.93319 12.37143,20.94033 96.6289,200.51171 53.11104,113.19157 96.80394,207.30339 97.09374,209.13672 0.9088,5.75142 -13.2033,38.49214 -27.4394,63.66211 -3.4206,6.0476 -6.5468,10.997 -6.9473,11 -0.4004,0.002 -36.5786,-106.89295 -80.39454,-237.54492 -72.0363,-214.80055 -79.62724,-238.24362 -79.27148,-244.80273 0.049,-0.90417 0.097,-1.68673 0.33008,-1.96289 z m -49.0625,50.07617 c 0.1778,0.1778 -2.33769,147.90479 -5.58985,328.28125 -3.25215,180.37646 -5.92094,329.60638 -5.93164,331.62308 l -0.0195,3.6679 h -84.66602 c -46.56661,0 -84.68121,-0.45 -84.69921,-1 -0.0503,-1.5336 180.5378,-662.94068 180.90625,-662.57223 z m 48.04687,2.71484 c 1.01091,1.01092 149.74607,445.16206 149.74607,447.16992 0,3.99796 -30.9433,44.98788 -57.13669,75.6875 -15.84979,18.57649 -33.47284,37.80647 -56.86329,62.04887 -10.99998,11.4005 -24.43873,24.903 -29.86328,30.0058 l -9.86328,9.2774 0.85938,-88.00004 c 0.47187,-48.39995 1.24899,-188.96021 1.72851,-312.35546 0.47953,-123.39525 1.1069,-224.11967 1.39258,-223.83399 z m 498.73247,470.51563 c 22.4761,0.3952 44.193,2.05066 64.1816,4.98437 70.7205,10.37956 128.4382,36.06488 166.1758,73.95313 18.784,18.85896 31.8133,38.30206 40.5937,60.57816 l 2.5645,6.5039 -21.584,5.6406 c -66.3863,17.3483 -136.9957,29.7731 -200.918,35.3535 -12.8333,1.1203 -35.934,2.4003 -51.334,2.8457 l -28,0.8106 -52.8261,-89.1641 c -29.0548,-49.04041 -52.7038,-89.31692 -52.5528,-89.50196 0.151,-0.18504 8.9236,-1.79032 19.4942,-3.56836 37.1778,-6.25357 76.7448,-9.09421 114.2051,-8.43554 z m -148.9864,16.16601 c 0.654,0.0123 1.0746,0.10896 1.2481,0.29297 1.3474,1.4294 102.7519,172.46528 102.7519,173.30858 0,0.3151 -22.4907,0.5742 -49.9785,0.5742 h -49.9766 l -3.1835,-6.334 c -8.0508,-16.0158 -68.8614,-146.63841 -68.8614,-147.91597 0,-0.79195 1.0506,-1.75288 2.334,-2.13672 1.2833,-0.38384 11.0327,-3.37341 21.666,-6.64257 23.3692,-7.18473 39.4221,-11.23287 44,-11.14649 z m -82.2812,23.78906 c 0.1603,-0.0108 0.2594,0.004 0.291,0.0488 0.4008,0.56546 68.9236,146.88579 69.623,148.66999 0.5158,1.3155 -10.0132,1.6679 -49.9726,1.6679 h -50.625 l -20.3106,-60.0449 c -11.1706,-33.0243 -20.006,-60.83518 -19.6347,-61.80275 0.8046,-2.09704 65.6578,-28.20504 70.6289,-28.53907 z m -84.9903,35.11329 c 0.2939,-0.002 0.4913,0.0499 0.5899,0.1582 0.5582,0.61317 9.2793,26.014 19.3789,56.4473 10.0997,30.4332 18.6375,56.0833 18.9746,57 0.4873,1.325 -22.5217,1.6679 -112.2559,1.6679 H 894.55845 l 0.39453,-8.9609 0.39453,-8.959 20.66601,-12.4473 c 54.88765,-33.0606 155.61848,-84.85195 164.72848,-84.9062 z m -759.46676,136.8359 c 0.45157,-0.019 0.76347,0.017 0.86133,0.1153 0.26095,0.261 -3.11136,4.0203 -7.49219,8.3554 -6.67148,6.6019 -7.96484,7.4096 -7.96484,4.9707 0,-3.8369 7.10959,-11.8243 11.50586,-12.9277 1.19497,-0.3001 2.33724,-0.4828 3.08984,-0.5137 z m 36.66797,23.7696 c 1.14471,0 0.85855,4.1741 -0.66015,9.6425 -0.84628,3.0473 -3.1186,6.3 -5.86719,8.3965 -2.46789,1.8823 -6.76451,3.7927 -9.54688,4.2442 l -5.05859,0.8203 2.80664,-3.5664 c 4.30652,-5.4748 17.49656,-19.5371 18.32617,-19.5371 z"
       transform="translate(-64.013525,-63.459436)" />
    <g
       id="layer2"
       inkscape:label="Body"
       style="display:inline;fill:#a05a2c">
      <path
         style="display:inline;fill:#a05a2c;stroke-width:1.33333"
         d="m 280.55396,1170.2402 9.13558,-9.2061 -17.33398,-33.7939 c -9.53369,-18.5866 -24.64436,-48.2637 -33.57928,-65.9492 -8.97046,-17.7558 -17.96245,-33.8004 -20.07985,-35.829 -6.74007,-6.4574 -24.22071,-7.2073 -25.09861,-1.0767 -0.41863,2.9233 75.00613,155.0611 76.87406,155.0611 0.52058,0 5.05751,-4.1428 10.08208,-9.2062 z"
         transform="translate(-64.013525,-63.459436)"
         id="path418" />
      <path
         style="display:inline;fill:#a05a2c;stroke-width:1.33333"
         d="m 1434.0135,1205.0136 c 39.7259,-2.8616 55.93,-4.3513 82.9255,-7.6236 108.8745,-13.1972 206.144,-41.7673 295.5487,-86.8088 l 15.8073,-7.9637 41.8107,-56.5231 c 22.9958,-31.0876 41.6162,-56.71738 41.3786,-56.95494 -0.2374,-0.23756 -8.1656,2.94683 -17.618,7.0764 -134.3905,58.71284 -276.2121,99.70654 -398.5194,115.19244 -61.5376,7.7916 -19.3407,7.2047 -555.33341,7.7238 -351.30157,0.3402 -496.08335,0.056 -507.99997,-0.9973 -57.28168,-5.0628 -108.94848,-18.0739 -158.39314,-39.8876 -6.81623,-3.0071 -12.66863,-5.4675 -13.00534,-5.4675 -0.3367,0 6.60558,14.4259 15.4273,32.0576 14.06625,28.1137 18.63785,35.1609 18.63785,28.7304 0,-3.8531 8.27205,-12.8843 14.98751,-16.363 5.92154,-3.0674 8.67193,-3.6325 17.67916,-3.6325 9.04533,0 11.74894,0.5604 17.78694,3.6872 15.01952,7.7777 25.15972,20.5737 26.48587,33.4228 1.96703,19.0587 -10.67747,34.3909 -30.27281,36.7077 l -7.33334,0.867 11.1237,3.6121 c 25.2482,8.1985 56.50228,12.6054 100.8763,14.2238 46.07588,1.6804 963.60348,0.6782 987.99998,-1.0792 z"
         transform="translate(-64.013525,-63.459436)"
         id="path416" />
      <path
         style="display:inline;fill:#a05a2c;stroke-width:1.33333"
         d="m 1464.6802,1312.4256 c 13.2,-1.1928 29.7,-2.8182 36.6667,-3.6121 77.425,-8.8229 143.79,-27.6159 204.2712,-57.8448 l 21.7197,-10.8557 39.722,-54 c 21.8471,-29.7 40.2915,-54.9963 40.9876,-56.214 0.8136,-1.4234 -5.3731,0.8218 -17.326,6.2877 -98.1207,44.8695 -207.0173,71.3287 -331.4563,80.5358 -51.9073,3.8406 -110.0969,4.2234 -565.25158,3.7192 -351.2667,-0.3891 -467.88736,-0.9077 -480,-2.1345 -32.77949,-3.3198 -68.00984,-10.659 -87.76601,-18.2835 -1.67276,-0.6456 3.53355,10.7693 16.66667,36.5417 l 19.09934,37.4807 11.33334,4.7973 c 45.69513,19.3426 98.15597,31.1527 158.66666,35.7197 3.3,0.249 209.1,0.358 457.33337,0.2421 404.96461,-0.1892 453.79901,-0.4336 475.33331,-2.3796 z"
         transform="translate(-64.013525,-63.459436)"
         id="path414" />
      <path
         style="display:inline;fill:#a05a2c;stroke-width:1.33333"
         d="m 164.85031,1385.407 c 6.09863,-4.6517 13.12557,-14.2703 31.02072,-42.462 17.32308,-27.2905 22.36435,-36.2939 32.40135,-57.8672 4.18852,-9.0026 9.67721,-19.4445 12.19709,-23.2042 2.51988,-3.7596 28.19815,-32.9507 57.06283,-64.8691 28.86468,-31.9184 52.48122,-58.6526 52.48122,-59.4093 0,-0.7568 -2.02284,-2.7391 -4.49521,-4.4053 l -4.49521,-3.0293 -36.82431,35.6429 c -76.92192,74.454 -85.69547,81.9715 -115.5186,98.9801 -17.17232,9.7937 -28.90728,17.7512 -38.96396,26.4217 -11.56911,9.9745 -70.923675,76.7979 -69.488745,78.2328 0.33442,0.3344 8.37308,2.7879 17.8637,5.4523 9.490615,2.6644 25.055675,7.1662 34.589005,10.0044 19.71257,5.8684 25.03668,5.9532 32.17012,0.5122 z"
         transform="translate(-64.013525,-63.459436)"
         id="path412" />
      <path
         style="display:inline;fill:#a05a2c;stroke-width:1.33333"
         d="m 391.73248,1389.9458 c 6.8121,-1.5688 12.2121,-3.2516 12,-3.7396 -2.27669,-5.2384 -90.70442,-178.7076 -91.98878,-180.4549 -1.58076,-2.1506 -2.54339,-1.4703 -10.76587,7.6083 l -9.02988,9.9701 24.17539,48.3917 c 34.1879,68.4337 61.27938,121.0567 62.32816,121.0675 0.49245,0 6.46889,-1.2743 13.28098,-2.8431 z"
         transform="translate(-64.013525,-63.459436)"
         id="path410" />
      <path
         style="display:inline;fill:#a05a2c;stroke-width:1.33333"
         d="m 1736.8161,1334.7797 c 132.984,-185.0196 196.7849,-273.682 250.4185,-347.99997 45.7831,-63.43956 58.7056,-82.21336 58.7377,-85.33333 l 0.041,-4 -22.6667,-0.34572 c -26.8745,-0.40991 -27.3955,-0.21675 -37.3556,13.85202 -13.9168,19.6574 -50.1175,69.10052 -92.1265,125.827 -40.2148,54.3035 -81.3687,110.1611 -212.1884,288 l -46.5886,63.3333 6.1296,1.7322 c 3.3712,0.9526 14.2295,4.3513 24.1295,7.5525 9.9,3.2013 19.0336,5.7219 20.2969,5.6012 1.3868,-0.132 21.661,-27.1603 51.1723,-68.2192 z"
         transform="translate(-64.013525,-63.459436)"
         id="path408" />
      <path
         style="display:inline;fill:#a05a2c;stroke-width:1.33333"
         d="m 662.01352,1423.9414 c 15.9289,-2.9398 27.29567,-6.2236 64,-18.4884 58.64426,-19.5962 83.37524,-24.0896 114,-20.7124 22.48254,2.4792 36.73687,6.1255 82,20.976 53.39877,17.5198 67.84297,20.7074 93.99998,20.745 25.7588,0.037 40.741,-3.2058 90.1838,-19.5184 39.8244,-13.1392 58.0015,-18.2278 75.1496,-21.0374 13.0353,-2.1358 41.9913,-2.1154 54.6666,0.039 16.1842,2.75 43.169,10.1591 65.3334,17.9383 48.1352,16.8941 72.255,22.4702 98,22.6562 27.6809,0.1999 40.3326,-2.5924 98.8409,-21.8141 50.8429,-16.7033 67.4377,-20.2872 94.4924,-20.4067 11,-0.048 21.6047,0.3355 23.566,0.8535 3.8705,1.0223 -1.2109,7.5428 75.0123,-96.2546 9.3688,-12.7579 16.2213,-22.8533 15.2278,-22.4343 -0.9933,0.4191 -12.0061,5.0649 -24.4728,10.3241 -54.6773,23.0661 -108.8517,36.9625 -174,44.633 -39.5776,4.6599 -61.0104,5.9808 -119.3333,7.3546 -68.1883,1.6061 -794.70201,1.6113 -835.33334,0.01 -61.69556,-2.4377 -103.28292,-9.2948 -151.25775,-24.94 -10.22509,-3.3346 -21.22515,-7.1919 -24.44455,-8.5719 -3.2194,-1.38 -5.65341,-2.0068 -5.4089,-1.3928 0.24449,0.6139 10.60869,21.1855 23.03154,45.7145 l 22.58702,44.5983 20.74632,0.091 c 27.86201,0.1213 43.91366,3.5641 95.23866,20.4258 49.90842,16.3964 55.76114,17.898 85.50766,21.938 6.79128,0.9224 31.44389,-0.65 42.66666,-2.7212 z"
         transform="translate(-64.013525,-63.459436)"
         id="path406" />
      <path
         style="display:inline;fill:#a05a2c;stroke-width:1.33333"
         d="m 881.34964,1062.4464 c 10e-4,-24.0167 0.92123,-219.09698 2.04376,-433.5118 1.12254,-214.41483 1.83179,-390.05431 1.57614,-390.30998 -0.25567,-0.25565 -4.11468,0.17808 -8.57562,0.96386 l -8.11077,1.42869 -0.78888,20.21461 c -0.43388,11.11804 -3.77904,194.81462 -7.43368,408.21462 -3.65464,213.4 -7.01613,398.95 -7.46997,412.3333 l -0.82515,24.3333 h 14.79069 14.7907 l 0.003,-43.6666 z"
         transform="translate(-64.013525,-63.459436)"
         id="path430" />
      <path
         style="display:inline;fill:#a05a2c;stroke-width:1.33333"
         d="m 403.48948,1077.1506 c 10.92156,-11.5294 27.75156,-29.1809 37.4,-39.2256 9.64844,-10.0447 17.95804,-19.572 18.46578,-21.1718 1.38458,-4.3624 -1.02007,-5.8938 -5.52187,-3.5167 -5.7082,3.0142 -82.36877,82.1005 -80.25977,82.7994 2.19117,0.7262 6.60825,1.7156 8.58253,1.9225 0.81177,0.085 10.41177,-9.2785 21.33333,-20.8078 z"
         transform="translate(-64.013525,-63.459436)"
         id="path440" />
      <path
         style="display:inline;fill:#a05a2c;stroke-width:1.33333"
         d="m 1052.6802,196.10139 c 387.6041,-65.40221 372.2416,-62.73649 376.0932,-65.26009 2.8784,-1.88602 3.2799,-2.90232 2.5607,-6.48246 -1.6996,-8.46062 -2.0172,-8.91245 -6.2626,-8.91245 -2.2526,0 -93.5622,14.99747 -202.9102,33.32771 -109.3479,18.33024 -254.31441,42.62754 -322.14778,53.99399 -127.88857,21.42958 -135.5608,22.81703 -138.33333,25.01616 -2.06344,1.63671 -2.17704,9.55048 -0.19037,13.26259 1.3259,2.47748 2.31058,2.67784 9.66666,1.9669 4.50471,-0.43536 131.19038,-21.54593 281.52372,-46.91235 z"
         transform="translate(-64.013525,-63.459436)"
         id="path452" />
      <path
         style="display:inline;fill:#a05a2c;stroke-width:1.33333"
         d="m 878.61456,192.66924 6.7323,-1.44383 0.23621,-46.88951 c 0.29859,-59.269835 0.1208,-63.769743 -2.60375,-65.889511 -2.88092,-2.241455 -7.66928,-2.106047 -10.0598,0.284478 -2.2439,2.24391 -3.27496,23.130323 -3.96802,80.382183 -0.33234,27.45322 -0.062,35 1.25354,35 0.92247,0 4.70676,-0.64972 8.40952,-1.44381 z"
         transform="translate(-64.013525,-63.459436)"
         id="path456" />
    </g>
    <path
       style="display:inline;fill:#decd87;stroke-width:1.33333"
       d="m 1013.3609,1006.8518 c 147.8775,-74.48511 255.866,-104.78391 373.2525,-104.72498 136.6807,0.0687 240.7799,46.75126 284.3411,127.51098 6.6153,12.2643 5.1221,15.1376 13.6106,-26.1914 13.028,-63.43063 16.735,-95.42171 17.6898,-152.66667 0.5733,-34.37861 0.2629,-49.39381 -1.4198,-68.66667 -7.641,-87.51794 -30.5529,-179.4406 -63.1436,-253.33333 -59.5981,-135.12663 -177.0734,-279.79672 -288.2677,-355.00001 -8.814,-5.96105 -16.6692,-10.33333 -18.5649,-10.33333 -2.909,0 -98.5181,15.97288 -348.17871,58.16824 -41.4333,7.00269 -75.55123,12.94747 -75.81753,13.21062 -0.26632,0.26315 6.63761,8.76056 15.34208,18.88313 62.46155,72.63772 116.79646,152.87243 147.76006,218.19278 29.6935,62.64125 48.5532,128.14124 54.1497,188.06333 1.9941,21.35145 0.8987,65.42487 -2.108,84.81524 -14.5439,93.79208 -58.6589,168.47445 -168.37561,285.04357 l -16.38273,17.4058 20.38273,-11.2864 c 11.2104,-6.2076 36.289,-19.2985 55.73001,-29.0909 z"
       transform="translate(-64.013525,-63.459436)"
       id="path444" />
  </g>
</svg>
